<mxfile host="Electron" agent="Mozilla/5.0 (Windows NT 10.0; Win64; x64) AppleWebKit/537.36 (KHTML, like Gecko) draw.io/26.0.4 Chrome/128.0.6613.186 Electron/32.2.5 Safari/537.36" version="26.0.4">
  <diagram name="Page-1" id="e7e014a7-5840-1c2e-5031-d8a46d1fe8dd">
    <mxGraphModel dx="511" dy="721" grid="1" gridSize="10" guides="1" tooltips="1" connect="1" arrows="1" fold="1" page="1" pageScale="1" pageWidth="1169" pageHeight="826" background="none" math="0" shadow="0">
      <root>
        <mxCell id="0" />
        <mxCell id="1" parent="0" />
        <mxCell id="2" value="User" style="swimlane;whiteSpace=wrap" parent="1" vertex="1">
          <mxGeometry x="164.5" y="128" width="280" height="772" as="geometry" />
        </mxCell>
        <mxCell id="5" value="" style="ellipse;shape=startState;fillColor=#000000;strokeColor=#ff0000;" parent="2" vertex="1">
          <mxGeometry x="100" y="40" width="30" height="30" as="geometry" />
        </mxCell>
        <mxCell id="6" value="" style="edgeStyle=elbowEdgeStyle;elbow=horizontal;verticalAlign=bottom;endArrow=open;endSize=8;strokeColor=#FF0000;endFill=1;rounded=0" parent="2" source="5" edge="1" target="Q-ZepU5BDTxhQgEtZN8l-6">
          <mxGeometry x="100" y="40" as="geometry">
            <mxPoint x="115.5" y="110" as="targetPoint" />
          </mxGeometry>
        </mxCell>
        <mxCell id="Q-ZepU5BDTxhQgEtZN8l-6" value="Chọn chức năng đánh giá" style="rounded=1;whiteSpace=wrap;html=1;" vertex="1" parent="2">
          <mxGeometry x="55.5" y="112" width="120" height="60" as="geometry" />
        </mxCell>
        <mxCell id="Q-ZepU5BDTxhQgEtZN8l-14" value="" style="edgeStyle=orthogonalEdgeStyle;rounded=0;orthogonalLoop=1;jettySize=auto;html=1;strokeColor=light-dark(#ff0000, #ededed);" edge="1" parent="2" source="Q-ZepU5BDTxhQgEtZN8l-11" target="Q-ZepU5BDTxhQgEtZN8l-13">
          <mxGeometry relative="1" as="geometry" />
        </mxCell>
        <mxCell id="Q-ZepU5BDTxhQgEtZN8l-11" value="Chọn đơn hàng cần đánh giá" style="rounded=1;whiteSpace=wrap;html=1;" vertex="1" parent="2">
          <mxGeometry x="55.5" y="222" width="120" height="60" as="geometry" />
        </mxCell>
        <mxCell id="Q-ZepU5BDTxhQgEtZN8l-13" value="Đánh giá" style="rounded=1;whiteSpace=wrap;html=1;" vertex="1" parent="2">
          <mxGeometry x="55.5" y="342" width="120" height="60" as="geometry" />
        </mxCell>
        <mxCell id="Q-ZepU5BDTxhQgEtZN8l-22" value="" style="edgeStyle=orthogonalEdgeStyle;rounded=0;orthogonalLoop=1;jettySize=auto;html=1;strokeColor=light-dark(#ff0000, #ededed);" edge="1" parent="2" source="Q-ZepU5BDTxhQgEtZN8l-21" target="Q-ZepU5BDTxhQgEtZN8l-13">
          <mxGeometry relative="1" as="geometry" />
        </mxCell>
        <mxCell id="Q-ZepU5BDTxhQgEtZN8l-21" value="Thông báo lỗi cần thử lại" style="rounded=1;whiteSpace=wrap;html=1;" vertex="1" parent="2">
          <mxGeometry x="55.5" y="472" width="120" height="60" as="geometry" />
        </mxCell>
        <mxCell id="3" value="System" style="swimlane;whiteSpace=wrap" parent="1" vertex="1">
          <mxGeometry x="444.5" y="128" width="365.5" height="772" as="geometry" />
        </mxCell>
        <mxCell id="Q-ZepU5BDTxhQgEtZN8l-7" value="Hiển thị danh sách&lt;div&gt;đơn hàng đã mua&lt;/div&gt;" style="rounded=1;whiteSpace=wrap;html=1;" vertex="1" parent="3">
          <mxGeometry x="80.5" y="112" width="120" height="60" as="geometry" />
        </mxCell>
        <mxCell id="Q-ZepU5BDTxhQgEtZN8l-8" value="Đơn hàng" style="rounded=0;whiteSpace=wrap;html=1;" vertex="1" parent="3">
          <mxGeometry x="255.5" y="40" width="95.5" height="50" as="geometry" />
        </mxCell>
        <mxCell id="Q-ZepU5BDTxhQgEtZN8l-9" value="" style="endArrow=none;dashed=1;html=1;dashPattern=1 3;strokeWidth=2;rounded=0;startArrow=classic;startFill=1;strokeColor=light-dark(#ff0000, #ededed);" edge="1" parent="3" source="Q-ZepU5BDTxhQgEtZN8l-7" target="Q-ZepU5BDTxhQgEtZN8l-8">
          <mxGeometry width="50" height="50" relative="1" as="geometry">
            <mxPoint x="165.5" y="132" as="sourcePoint" />
            <mxPoint x="215.5" y="82" as="targetPoint" />
          </mxGeometry>
        </mxCell>
        <mxCell id="Q-ZepU5BDTxhQgEtZN8l-15" value="Kiếm tra bình luận" style="rounded=1;whiteSpace=wrap;html=1;" vertex="1" parent="3">
          <mxGeometry x="215.5" y="342" width="120" height="60" as="geometry" />
        </mxCell>
        <mxCell id="Q-ZepU5BDTxhQgEtZN8l-17" value="" style="endArrow=classic;html=1;rounded=0;strokeColor=light-dark(#ff0000, #ededed);" edge="1" parent="3" source="Q-ZepU5BDTxhQgEtZN8l-15" target="Q-ZepU5BDTxhQgEtZN8l-18">
          <mxGeometry width="50" height="50" relative="1" as="geometry">
            <mxPoint x="115.5" y="482" as="sourcePoint" />
            <mxPoint x="275.5" y="472" as="targetPoint" />
          </mxGeometry>
        </mxCell>
        <mxCell id="Q-ZepU5BDTxhQgEtZN8l-20" value="Đúng" style="edgeStyle=orthogonalEdgeStyle;rounded=0;orthogonalLoop=1;jettySize=auto;html=1;strokeColor=light-dark(#ff0000, #ededed);" edge="1" parent="3" source="Q-ZepU5BDTxhQgEtZN8l-18" target="Q-ZepU5BDTxhQgEtZN8l-19">
          <mxGeometry relative="1" as="geometry" />
        </mxCell>
        <mxCell id="Q-ZepU5BDTxhQgEtZN8l-18" value="" style="rhombus;whiteSpace=wrap;html=1;fillColor=#fff2cc;strokeColor=#FF0000;" vertex="1" parent="3">
          <mxGeometry x="230" y="472" width="91" height="58" as="geometry" />
        </mxCell>
        <mxCell id="Q-ZepU5BDTxhQgEtZN8l-25" value="" style="edgeStyle=orthogonalEdgeStyle;rounded=0;orthogonalLoop=1;jettySize=auto;html=1;strokeColor=#FF0000;" edge="1" parent="3" source="Q-ZepU5BDTxhQgEtZN8l-19" target="Q-ZepU5BDTxhQgEtZN8l-24">
          <mxGeometry relative="1" as="geometry" />
        </mxCell>
        <mxCell id="Q-ZepU5BDTxhQgEtZN8l-19" value="Thông báo bình luận&lt;div&gt;thành công&lt;/div&gt;" style="rounded=1;whiteSpace=wrap;html=1;" vertex="1" parent="3">
          <mxGeometry x="215.5" y="612" width="120" height="60" as="geometry" />
        </mxCell>
        <mxCell id="Q-ZepU5BDTxhQgEtZN8l-24" value="Hiển thị bình luận" style="rounded=1;whiteSpace=wrap;html=1;" vertex="1" parent="3">
          <mxGeometry x="35.5" y="612" width="120" height="60" as="geometry" />
        </mxCell>
        <mxCell id="Q-ZepU5BDTxhQgEtZN8l-26" value="" style="ellipse;html=1;shape=endState;fillColor=#000000;strokeColor=#ff0000;" vertex="1" parent="3">
          <mxGeometry x="80.5" y="712" width="30" height="30" as="geometry" />
        </mxCell>
        <mxCell id="Q-ZepU5BDTxhQgEtZN8l-27" value="" style="endArrow=classic;html=1;rounded=0;strokeColor=#FF0000;" edge="1" parent="3" source="Q-ZepU5BDTxhQgEtZN8l-24" target="Q-ZepU5BDTxhQgEtZN8l-26">
          <mxGeometry width="50" height="50" relative="1" as="geometry">
            <mxPoint x="95.5" y="592" as="sourcePoint" />
            <mxPoint x="145.5" y="542" as="targetPoint" />
          </mxGeometry>
        </mxCell>
        <mxCell id="Q-ZepU5BDTxhQgEtZN8l-10" value="" style="endArrow=classic;html=1;rounded=0;strokeColor=light-dark(#ff0000, #ededed);" edge="1" parent="1" source="Q-ZepU5BDTxhQgEtZN8l-6" target="Q-ZepU5BDTxhQgEtZN8l-7">
          <mxGeometry width="50" height="50" relative="1" as="geometry">
            <mxPoint x="330" y="260" as="sourcePoint" />
            <mxPoint x="380" y="210" as="targetPoint" />
          </mxGeometry>
        </mxCell>
        <mxCell id="Q-ZepU5BDTxhQgEtZN8l-12" value="" style="endArrow=classic;html=1;rounded=0;strokeColor=light-dark(#ff0000, #ededed);" edge="1" parent="1" source="Q-ZepU5BDTxhQgEtZN8l-7" target="Q-ZepU5BDTxhQgEtZN8l-11">
          <mxGeometry width="50" height="50" relative="1" as="geometry">
            <mxPoint x="510" y="400" as="sourcePoint" />
            <mxPoint x="560" y="350" as="targetPoint" />
            <Array as="points">
              <mxPoint x="585" y="380" />
            </Array>
          </mxGeometry>
        </mxCell>
        <mxCell id="Q-ZepU5BDTxhQgEtZN8l-16" value="" style="endArrow=classic;html=1;rounded=0;strokeColor=light-dark(#ff0000, #ededed);" edge="1" parent="1" source="Q-ZepU5BDTxhQgEtZN8l-13" target="Q-ZepU5BDTxhQgEtZN8l-15">
          <mxGeometry width="50" height="50" relative="1" as="geometry">
            <mxPoint x="530" y="530" as="sourcePoint" />
            <mxPoint x="580" y="480" as="targetPoint" />
          </mxGeometry>
        </mxCell>
        <mxCell id="Q-ZepU5BDTxhQgEtZN8l-23" value="Sai" style="endArrow=classic;html=1;rounded=0;strokeColor=light-dark(#ff0000, #ededed);" edge="1" parent="1" source="Q-ZepU5BDTxhQgEtZN8l-18" target="Q-ZepU5BDTxhQgEtZN8l-21">
          <mxGeometry x="-0.0011" width="50" height="50" relative="1" as="geometry">
            <mxPoint x="530" y="650" as="sourcePoint" />
            <mxPoint x="580" y="600" as="targetPoint" />
            <mxPoint as="offset" />
          </mxGeometry>
        </mxCell>
      </root>
    </mxGraphModel>
  </diagram>
</mxfile>
